HIERARCHY
ROOT Hips
{
	OFFSET -14.64140 90.27770 -84.91600
	CHANNELS 6 Xposition Yposition Zposition Zrotation Xrotation Yrotation
	JOINT Spine
	{
		OFFSET 0.00000 13.20850 -1.60436
		CHANNELS 3 Zrotation Xrotation Yrotation
		JOINT Spine1
		{
			OFFSET 0.00000 8.61716 0.00000
			CHANNELS 3 Zrotation Xrotation Yrotation
			JOINT Spine2
			{
				OFFSET 0.00000 8.61717 0.00000
				CHANNELS 3 Zrotation Xrotation Yrotation
				JOINT Spine3
				{
					OFFSET 0.00000 8.61717 0.00000
					CHANNELS 3 Zrotation Xrotation Yrotation
					JOINT Neck
					{
						OFFSET 0.00000 11.07920 1.10792
						CHANNELS 3 Zrotation Xrotation Yrotation
						JOINT Neck1
						{
							OFFSET 0.00000 7.08032 0.00000
							CHANNELS 3 Zrotation Xrotation Yrotation
							JOINT Head
							{
								OFFSET 0.00000 7.08031 0.00000
								CHANNELS 3 Zrotation Xrotation Yrotation
								End site
								{
									OFFSET 0.00000 0.00000 0.00000
								}
							}
						}
					}
					JOINT RightShoulder
					{
						OFFSET -0.01000 7.91373 5.19711
						CHANNELS 3 Zrotation Xrotation Yrotation
						JOINT RightArm
						{
							OFFSET -18.41580 0.00000 0.00000
							CHANNELS 3 Zrotation Xrotation Yrotation
							JOINT RightForeArm
							{
								OFFSET -29.11090 0.00000 0.00000
								CHANNELS 3 Zrotation Xrotation Yrotation
								JOINT RightHand
								{
									OFFSET -24.65040 0.00000 0.00000
									CHANNELS 3 Zrotation Xrotation Yrotation
									JOINT RightHandThumb1
									{
										OFFSET -5.35114 -0.85590 3.97906
										CHANNELS 3 Zrotation Xrotation Yrotation
										JOINT RightHandThumb2
										{
											OFFSET -4.52789 0.00000 0.00000
											CHANNELS 3 Zrotation Xrotation Yrotation
											JOINT RightHandThumb3
											{
												OFFSET -2.46976 0.00000 0.00000
												CHANNELS 3 Zrotation Xrotation Yrotation
												End site
												{
													OFFSET 0.00000 0.00000 0.00000
												}
											}
										}
									}
									JOINT RightHandIndex1
									{
										OFFSET -14.26970 0.00000 2.88139
										CHANNELS 3 Zrotation Xrotation Yrotation
										JOINT RightHandIndex2
										{
											OFFSET -5.48836 0.00000 0.00000
											CHANNELS 3 Zrotation Xrotation Yrotation
											JOINT RightHandIndex3
											{
												OFFSET -3.01859 0.00000 0.00000
												CHANNELS 3 Zrotation Xrotation Yrotation
												End site
												{
													OFFSET 0.00000 0.00000 0.00000
												}
											}
										}
									}
									JOINT RightHandMiddle1
									{
										OFFSET -14.26970 0.00000 -0.09147
										CHANNELS 3 Zrotation Xrotation Yrotation
										JOINT RightHandMiddle2
										{
											OFFSET -6.17441 0.00000 0.00000
											CHANNELS 3 Zrotation Xrotation Yrotation
											JOINT RightHandMiddle3
											{
												OFFSET -3.56743 0.00000 0.00000
												CHANNELS 3 Zrotation Xrotation Yrotation
												End site
												{
													OFFSET 0.00000 0.00000 0.00000
												}
											}
										}
									}
									JOINT RightHandRing1
									{
										OFFSET -12.69180 0.00000 -3.06433
										CHANNELS 3 Zrotation Xrotation Yrotation
										JOINT RightHandRing2
										{
											OFFSET -5.62556 0.00000 0.00000
											CHANNELS 3 Zrotation Xrotation Yrotation
											JOINT RightHandRing3
											{
												OFFSET -3.56744 0.00000 0.00000
												CHANNELS 3 Zrotation Xrotation Yrotation
												End site
												{
													OFFSET 0.00000 0.00000 0.00000
												}
											}
										}
									}
									JOINT RightHandPinky1
									{
										OFFSET -11.11390 0.00000 -6.03719
										CHANNELS 3 Zrotation Xrotation Yrotation
										JOINT RightHandPinky2
										{
											OFFSET -4.52789 0.00000 0.00000
											CHANNELS 3 Zrotation Xrotation Yrotation
											JOINT RightHandPinky3
											{
												OFFSET -2.46976 0.00000 0.00000
												CHANNELS 3 Zrotation Xrotation Yrotation
												End site
												{
													OFFSET 0.00000 0.00000 0.00000
												}
											}
										}
									}
								}
							}
						}
					}
					JOINT LeftShoulder
					{
						OFFSET 0.01000 7.91373 5.19711
						CHANNELS 3 Zrotation Xrotation Yrotation
						JOINT LeftArm
						{
							OFFSET 18.41580 0.00000 0.00000
							CHANNELS 3 Zrotation Xrotation Yrotation
							JOINT LeftForeArm
							{
								OFFSET 29.11090 0.00000 0.00000
								CHANNELS 3 Zrotation Xrotation Yrotation
								JOINT LeftHand
								{
									OFFSET 24.65040 0.00000 0.00000
									CHANNELS 3 Zrotation Xrotation Yrotation
									JOINT LeftHandThumb1
									{
										OFFSET 5.35114 -0.85590 3.97906
										CHANNELS 3 Zrotation Xrotation Yrotation
										JOINT LeftHandThumb2
										{
											OFFSET 4.52789 0.00000 0.00000
											CHANNELS 3 Zrotation Xrotation Yrotation
											JOINT LeftHandThumb3
											{
												OFFSET 2.46977 0.00000 0.00000
												CHANNELS 3 Zrotation Xrotation Yrotation
												End site
												{
													OFFSET 0.00000 0.00000 0.00000
												}
											}
										}
									}
									JOINT LeftHandIndex1
									{
										OFFSET 14.26970 0.00000 2.88139
										CHANNELS 3 Zrotation Xrotation Yrotation
										JOINT LeftHandIndex2
										{
											OFFSET 5.48836 0.00000 0.00000
											CHANNELS 3 Zrotation Xrotation Yrotation
											JOINT LeftHandIndex3
											{
												OFFSET 3.01859 0.00000 0.00000
												CHANNELS 3 Zrotation Xrotation Yrotation
												End site
												{
													OFFSET 0.00000 0.00000 0.00000
												}
											}
										}
									}
									JOINT LeftHandMiddle1
									{
										OFFSET 14.26970 0.00000 -0.09147
										CHANNELS 3 Zrotation Xrotation Yrotation
										JOINT LeftHandMiddle2
										{
											OFFSET 6.17440 0.00000 0.00000
											CHANNELS 3 Zrotation Xrotation Yrotation
											JOINT LeftHandMiddle3
											{
												OFFSET 3.56744 0.00000 0.00000
												CHANNELS 3 Zrotation Xrotation Yrotation
												End site
												{
													OFFSET 0.00000 0.00000 0.00000
												}
											}
										}
									}
									JOINT LeftHandRing1
									{
										OFFSET 12.69180 0.00000 -3.06433
										CHANNELS 3 Zrotation Xrotation Yrotation
										JOINT LeftHandRing2
										{
											OFFSET 5.62556 0.00000 0.00000
											CHANNELS 3 Zrotation Xrotation Yrotation
											JOINT LeftHandRing3
											{
												OFFSET 3.56744 0.00000 0.00000
												CHANNELS 3 Zrotation Xrotation Yrotation
												End site
												{
													OFFSET 0.00000 0.00000 0.00000
												}
											}
										}
									}
									JOINT LeftHandPinky1
									{
										OFFSET 11.11390 0.00000 -6.03719
										CHANNELS 3 Zrotation Xrotation Yrotation
										JOINT LeftHandPinky2
										{
											OFFSET 4.52789 0.00000 0.00000
											CHANNELS 3 Zrotation Xrotation Yrotation
											JOINT LeftHandPinky3
											{
												OFFSET 2.46976 0.00000 0.00000
												CHANNELS 3 Zrotation Xrotation Yrotation
												End site
												{
													OFFSET 0.00000 0.00000 0.00000
												}
											}
										}
									}
								}
							}
						}
					}
					JOINT pCube4
					{
						OFFSET 0.00000 10.91090 1.10792
						CHANNELS 3 Zrotation Xrotation Yrotation
						End site
						{
							OFFSET 0.00000 0.00000 0.00000
						}
					}
				}
			}
		}
	}
	JOINT RightUpLeg
	{
		OFFSET -9.98441 0.00000 0.00000
		CHANNELS 3 Zrotation Xrotation Yrotation
		JOINT RightLeg
		{
			OFFSET 0.00000 -42.11790 0.00000
			CHANNELS 3 Zrotation Xrotation Yrotation
			JOINT RightFoot
			{
				OFFSET 0.00000 -45.00020 -0.00001
				CHANNELS 3 Zrotation Xrotation Yrotation
				JOINT RightForeFoot
				{
					OFFSET 0.00000 -3.74820 0.00000
					CHANNELS 3 Zrotation Xrotation Yrotation
					JOINT RightToeBase
					{
						OFFSET 0.00000 0.06325 14.43120
						CHANNELS 3 Zrotation Xrotation Yrotation
						End site
						{
							OFFSET 0.00000 0.00000 0.00000
						}
					}
				}
			}
		}
	}
	JOINT LeftUpLeg
	{
		OFFSET 9.98441 0.00000 0.00000
		CHANNELS 3 Zrotation Xrotation Yrotation
		JOINT LeftLeg
		{
			OFFSET 0.00000 -42.11800 0.00000
			CHANNELS 3 Zrotation Xrotation Yrotation
			JOINT LeftFoot
			{
				OFFSET 0.00000 -45.00070 0.00000
				CHANNELS 3 Zrotation Xrotation Yrotation
				JOINT LeftForeFoot
				{
					OFFSET 0.00000 -3.74824 0.00000
					CHANNELS 3 Zrotation Xrotation Yrotation
					JOINT LeftToeBase
					{
						OFFSET 0.00000 0.06325 14.43110
						CHANNELS 3 Zrotation Xrotation Yrotation
						End site
						{
							OFFSET 0.00000 0.00000 0.00000
						}
					}
				}
			}
		}
	}
}
MOTION
Frames: 4
Frame Time: 0.050000
0.012347014722780662 -0.03894426612966542 -0.027695138529005354 0.035148011083872964 0.0347799458786879 0.023174710116507 2.0295209511921075 1.2412718626734098 -1.8472243777939705 -0.9149456423919088 3.5280194570681997 0.375638602599921 -1.206661989559498 -1.4763600904688687 0.2744771943369195 0.4716941003984762 -0.1514727151850701 -0.46965003417242096 1.8621766807509195 13.679504180955066 -5.137495817571469 0.3330918833286358 0.49224434882731993 -12.4245148887646 2.0501236636168683 -15.008983964684314 -1.0793147632338698 -11.93241630091858 3.7149537408214557 -17.31276764854234 72.27373053568148 -15.006792391776628 22.92301996658112 15.047149641497285 2.1741509003131743 94.23884954806611 2.3389677659283348 -0.031729753817028535 -0.25445715590697376 4.513696341789435 -0.1150971133966334 -1.5916855039447941 0.04986228191780702 -0.006801628113629539 -56.241938111827736 -0.006077384507009804 -0.006245164005370591 -56.26090845024793 -38.7774917199966 0.02441962342391828 -0.0021999629766342355 -0.040007661089026494 0.010633842886154437 -0.03307635426721673 -0.009359408745289743 0.019318882854459013 -0.041774051932455036 -36.73380065533405 -0.023501850891089315 -0.032883107037723694 0.03520880446334201 -0.022178435297846785 -0.03808125488223011 0.04371217407972291 0.04490970169093736 -0.023470945162682944 -19.72055373982269 0.0040197722032739224 0.022170575708237158 0.0003481220490963856 -0.04258240152242963 -0.00010606638541554038 -0.039186178506398446 0.017203822019858286 0.03035764857944295 24.064777699031218 0.0155406364948161 0.04923199253598337 28.818079847327873 0.005605181588184225 0.018909123635797834 28.85171836121961 -0.03171638214311354 -0.029099133697957597 7.703591864770748 1.9112756020381856 13.339194057856412 -71.2422227951627 21.939812303917908 -11.428523149796103 -16.507712291491785 3.08790412403568 -66.10009347559749 -11.956656996872535 -1.8603639346615308 0.6463220035111799 -0.4871845784154706 0.08399239502689981 -8.085351526590323 -0.006392106208668641 0.04302440345983999 44.6111119980074 0.004361847454640094 0.019772991140871127 44.612213775805145 12.458369260905872 0.0021710605934570294 -0.020127867288749286 -0.009312689841382515 0.03665042349321622 0.03348953887004132 -0.013845431151242238 -0.04721373019341082 0.016864685064335503 11.101603810695536 0.001286163990897755 -0.00010273083416194273 -0.02460446032716431 -0.030718909473517245 0.005388721034870358 0.04110717026136912 -0.0357360048780812 -0.0433898706998449 4.774980873839136 0.03310728226596077 0.011104598187087755 0.005885877731812758 -0.036845104069773385 0.023919215512175386 -0.01456112464604857 -0.013956456587927215 -0.032382236886793155 -5.625259414042014 -0.023506384799422637 0.019922751407451644 -6.751451451809028 0.04051636924805075 -0.0210474689416476 -6.742927065631463 0.015519639532197413 0.022944026070826892 0.035981070812816957 0.02027221663769593 -0.01317684456027385 8.014584584658548 3.4947359681278 -19.222598688080765 0.025643831159972638 10.421551142744535 0.03222323739065322 -5.645273530093799 -15.697417481277126 3.176196530485648 -0.01037734505578382 0.009249026158577952 -0.012374264067521717 -0.014988003433189586 4.6788551747714475 -0.049740914518299505 12.417404046693374 -8.240312979373346 6.894609627931443 0.03365522743289613 46.3417811148879 0.018814899257976997 -4.287816376065427 -14.765406264592116 -3.873048288780561 0.005762169022376545 0.016251363894455133 0.028139604613810175 -0.012333086022948258 -10.719088472056782 -0.02022878331914472 
0.0196399079368646 0.024317993420399937 0.011184372081156482 -0.03853488027696533 -0.014407094244447572 -0.005530831296052731 2.338356022681156 1.1427695419648924 -1.8839224138060833 -0.8847182587148629 3.561660646886029 0.3912334168535547 -1.173982103754272 -1.5542148285947555 0.5047249982269855 0.48530310558890416 -0.16238248147446424 -0.41561740322591245 1.9105369447153557 13.742319346658132 -5.335097212791376 0.34036562281798294 0.560739443863275 -12.872687978256572 2.1176517360750178 -14.958550948831801 -1.101448466494647 -12.227719427260341 3.8711483974623966 -17.451579632781307 71.77552797274996 -14.811853058597492 23.697948158430272 12.532131124659896 1.8354017042863975 92.94084426515538 2.396377515522248 -0.0431440923992295 -0.2593852005913856 4.554317990775204 -0.14274377849968525 -1.60726782550933 -0.04689283992427297 0.04145740666558284 -56.2499170215198 -0.029123353299450917 -0.006858327758012535 -56.25441840420811 -38.753769730747436 0.016817933176393046 0.041195666160580666 -0.019060757856020568 -0.0018780931191728688 -0.008541047034355147 -0.01928173411161318 0.013765994211967055 -0.013302835581455086 -36.698505804554394 -0.04006898253845149 0.013761252068051387 0.021173829267773482 0.007110741353859242 0.038201161333051466 -0.03220051802705895 -0.020973782245942735 -0.02762137739001882 -19.75874998187547 -0.03435998491672254 -0.024846737464018817 0.02112856667143477 -0.029365153944020835 -0.010077952467073218 0.043921533464224914 0.02910938184473582 0.028013178529588113 24.03731626711618 -0.04109464915944029 -0.00955696515636317 28.911996736369197 0.0067526918804942495 0.0037312395853537727 28.89675765072946 -0.003183008691874845 0.005563981637199753 7.606702754419886 1.8628247053120537 13.569581410046814 -71.32836705085198 21.931982907014227 -10.453374952163733 -9.295591579214403 0.10744445225757926 -59.56542136461287 -12.361032672473279 -1.3699220613579621 0.7354965709969261 -0.5156541284301634 0.06941743019064815 -8.103705864339675 0.024154579539651482 0.004930304458154093 44.58183340580814 -0.02392109952693678 -0.04455291881675949 44.53578571144345 12.445811816762758 -0.016235048634101672 -0.020318580167852936 -0.010620609273707789 -0.016316675043177745 0.047401849549736974 0.024414785937309055 -0.004729720154127792 -0.04023686748414907 11.08543238475739 -0.02436076125261325 0.043003481488105545 -0.007347670007210438 0.0012712203542568237 -0.000616348486241815 -0.021745522535093553 -0.037519235726037645 0.02867921324274472 4.80029913521797 -0.024308797071671443 0.012809023425978686 -0.011410017060918537 0.017505593715068504 -0.03046953294859074 -0.03211299191152665 0.026590336803134676 -0.014785288414476619 -5.573619596292658 0.02291547359015322 -0.04557518513774884 -6.713325988410269 0.02832803270702024 -0.033453483730958154 -6.700332928880657 0.009877018482886487 -0.02767596291869656 0.02841451780193574 -0.017449383776819365 -0.003642465807376464 8.091081377508484 3.538499370762067 -19.225771632684207 -0.015800308217973475 10.363029992144892 0.01873870888548971 -5.63828491087624 -15.662338318470926 3.2203162079565937 0.034185231055343435 0.041888048236618056 -0.031097130777082774 -0.006388115058290389 4.670076583834298 -0.01717666423783401 12.448924550412793 -8.206937610556894 6.875265343084854 0.02880927282763926 46.42683665452666 0.0013562228602663215 -4.333827513890363 -14.786000149566053 -3.8504663303855096 0.011555345485337926 0.010943923264321717 0.005844866625501302 0.00011897833414686453 -10.770477224711218 -0.029712148615204437 
-0.034970614672975235 -0.009360450113631803 -0.019803359519708567 -0.008499340408964686 0.009485941209150722 -0.045903894973244014 2.7798060665062767 1.2002669053244936 -1.933703905933672 -0.865426619989869 3.5403613917983683 0.36983216512771033 -1.1149771115365756 -1.488052956135882 0.7916678795568549 0.4333061509620976 -0.16404913011767056 -0.40213975421128795 1.9538520446340601 13.792706991833285 -5.460426408304172 0.3029830799976221 0.5801943764959756 -13.310689969309193 2.115389422122826 -15.033243767523276 -1.0970329799473757 -12.62016166719328 3.9122360522620743 -17.664481617465356 71.54520411027823 -14.89507161753101 24.429544447556648 10.132747533951854 1.4502431030678282 91.78976017881762 2.195212898740011 -0.06554259276392037 -0.13769142142413193 4.5573718916111545 -0.12410413457128319 -1.5861968494170506 0.03974261079428441 -0.023763072947014286 -56.22982850322756 0.0013907265682469598 0.021341014440237414 -56.2663827877232 -38.74017388065773 0.03189466700067416 -0.031545394514189785 -0.022362713339872452 0.01441839291510037 -0.007221674700908169 0.0313273177414411 0.04255427614750695 -0.03723457912663177 -36.71614335438549 -0.024117489315205857 -0.017175136267780944 -0.04709770860032389 -0.030145428882175307 0.018219102330686396 -0.00571110068101044 0.014273059351515271 0.03525907475487789 -19.76112459689729 -0.03736805559165572 0.004361714348458959 -0.015568318025692909 0.049347458253633285 0.0388658211739152 0.0023694694759686086 -0.0130383117167751 -0.013603491695453876 24.069948733634888 0.008470323289318512 0.0283761311519842 28.870723835907263 0.03318197953650086 -0.02871474129370822 28.82681322032669 0.045701700100167955 0.018168348299541677 7.51535385016467 1.8863473843777336 13.724080889329821 -71.64257705643999 21.611382059511378 -9.544208445976464 -3.301398175350807 -2.8731279761396866 -53.7482982720015 -12.910110617705957 -1.0813284749494194 0.7654985834110253 -0.4592862146361644 0.07342364517868227 -8.140500530813641 -0.04886592899837606 0.0021394321539369657 44.59190799290236 -0.011204000046845708 -0.02624050892950376 44.56656050553333 12.467223718126588 -0.004833805301752441 -0.012018943730015351 0.017306634351359478 0.045894636871926 0.02628419747876049 -0.006199669001483957 0.016544697038416854 0.028864016160582665 11.0934415075145 0.013360722645013009 0.046946764862310836 -0.014292662482707975 -0.012167864968563655 -0.009669708748478306 -0.016401693721889668 0.020762497450293408 0.011649193760383116 4.782621178943173 -0.031945416276485755 0.02523591404091028 -0.027209309994146138 -0.020508429531091398 0.025781599091160942 0.01891140428836368 -0.03200698506740646 -0.02598580265869129 -5.620655219403999 -0.032211839241608684 -0.005066343341984108 -6.683339045244158 -0.023208922854769522 -0.049705354573265026 -6.685855913323264 -0.022115746599307127 -0.018598749303076634 -0.007835852121589775 -0.016867342907871882 -0.03299095187085815 8.002233266909508 3.5138292861240035 -19.24127673864424 -0.012995184554134773 10.433192450688784 -0.023613321769598832 -5.5794341144294854 -15.62942789755359 3.1781512871003614 -0.01493482122449549 0.03719700539475964 0.02021325548122872 0.007562343164976551 4.685606288073965 -0.009694771067525925 12.456677376914866 -8.255357335738784 6.865443718611091 0.01862642125193694 46.37969642635662 0.004603080116194482 -4.310554960919051 -14.708360386185294 -3.8042922306280094 0.03849620028898283 -0.00035181124042659237 0.01575670466124204 -0.037238713838425086 -10.700338344361935 -0.046600611481615206 
0.04668409429541773 -0.03451855828748916 2.221637498934175e-05 0.022015737849092793 0.014731423052152769 0.002824115002259058 3.2847968653857795 1.348238950291787 -2.0186793068216136 -0.8727546843704375 3.5568279191460697 0.41723813206655114 -1.0953567470666092 -1.4507536938032712 1.0906348311068677 0.404011870035196 -0.2868613557616393 -0.34662879797814516 2.059592273445896 13.811182944441459 -5.658178929216087 0.3451341392139646 0.4520165443233771 -13.729288638238671 2.2206732199493127 -15.206471092223781 -1.1210457035241101 -13.162478173785708 4.039202317426261 -17.964096630086228 71.75521192698895 -15.965061937567375 25.114860670703912 8.888494952109985 1.1829299095457142 90.8789019967954 1.9236808508211531 -0.03156862425946815 -0.07854231604063189 4.552422570569461 -0.09398360392008237 -1.6032803292679216 0.011428915705998698 -0.016300596476622076 -56.23954677338153 -0.046312779649342765 0.02274501250377714 -56.267222825430224 -38.72725374094894 -0.016817803000889343 0.042805639418675295 0.03929290789149674 0.022806547911409136 0.006507713562942516 0.044848436236565946 -0.0486078707131077 0.010995619943517776 -36.70820376244822 0.03463084054920662 0.01451850148441668 0.03372273370911915 0.010517755698798936 -0.04413648281381258 0.021612751774141074 -0.003266473004256656 0.009534997161035265 -19.788889916080475 -0.0019065646082353496 0.003514864053273025 0.010939537472496 -0.036441272508752814 0.022331782367585575 0.01520733822894382 -0.032991209851788175 -0.0008365540529532975 24.027210880372152 -0.04013048124549298 0.025233215095875804 28.849844165330218 -0.04899971167883354 0.016640645538729907 28.82813363604443 -0.020662846982227038 0.010169310745631531 7.667179328043685 1.908971049542395 13.940508773114534 -72.02081286696402 20.753129674516448 -9.00069650213092 -0.8959289113595927 -3.708875594004181 -49.98579292281927 -13.607979740668915 -0.8081728536970545 0.7556632986190956 -0.5190351548085786 0.042209760622998194 -8.118799173322708 -0.014240942993176459 -0.027953502348118445 44.56248929669692 0.00033364011490959715 -0.02609586651256685 44.568832973820925 12.466764502077007 0.012465640962977623 0.04350282462314921 -0.02293002835020675 -0.017197965192921716 0.013441771969118535 -0.04721935704676817 -0.006440993057362176 0.0011009605404384542 11.071645920132605 -0.013446953503897881 -0.030300641462251632 0.007104389015014832 -0.001530987535432252 0.009903299213701268 -0.0011130122739660816 0.024289463805931853 -0.04031394269090936 4.760828992793088 0.0021694581782052617 -0.00857159439692825 -0.02505553937201507 -0.007941217917546078 0.02413127005889336 -0.0021558149495324638 -0.03478918932987434 -0.02850676406178615 -5.619612009605685 0.02838104107299807 0.016356319688239116 -6.696490813961684 -0.047745160537751026 0.03896659607892073 -6.706076287058071 -0.014796337223445729 0.010674493066413885 -1.6688519971758904e-05 0.017941718182625768 -0.04639944105025636 8.04766029010333 3.482236959713568 -19.206779770467573 0.037074351312391104 10.437993832380835 0.04605036314261077 -5.587618648275067 -15.645044547274265 3.2158592647460913 -0.006586514561240796 0.0016042272201904414 0.023773970416386674 -0.017804282482048194 4.718122927137791 0.026194402352835506 12.451854718183203 -8.263992393532524 6.904774569413453 -0.03356564848263896 46.39419485637466 -0.027727659949464765 -4.335855982220405 -14.758225043017086 -3.796918439334848 -0.013420381990930857 -0.023985629915378334 0.01421806411055565 0.005009384347074623 -10.749727128749454 0.0077787868738011575 
